
<svg xmlns="http://www.w3.org/2000/svg"  version="1.2" baseProfile="tiny" viewBox="0.00 0.00 208.00 112.00">
<path stroke="#87ddd8" stroke-width="2.00" fill="none" stroke-linecap="butt" vector-effect="non-scaling-stroke" d="
  M 108.44 20.00
  Q 108.99 21.05 108.17 20.20
  Q 103.08 14.93 96.40 13.49
  C 88.68 11.83 82.91 17.13 84.31 25.04
  Q 85.40 31.15 88.52 36.76
  Q 88.83 37.32 88.62 37.92
  C 87.03 42.54 86.14 48.73 88.35 53.02
  Q 91.73 59.61 97.38 56.22
  C 101.51 53.75 101.29 46.45 100.86 42.03
  A 0.69 0.69 0.0 0 0 100.21 41.41
  Q 97.97 41.28 97.52 39.37
  Q 97.38 38.78 97.72 38.28
  Q 99.30 35.91 101.51 33.55
  C 103.85 31.08 107.52 32.19 107.69 35.76
  Q 107.98 41.86 107.85 48.52
  C 107.76 52.81 109.46 57.14 114.51 57.30
  C 123.64 57.60 121.70 43.47 120.28 38.34
  A 2.81 2.80 -36.7 0 1 120.61 36.12
  C 123.42 31.63 125.37 25.24 123.96 20.26
  C 121.33 10.93 112.64 11.56 105.53 15.08
  Q 104.91 15.39 105.39 15.89
  Q 107.26 17.80 108.44 20.00"
/>
<path fill="#0ebab0" d="
  M 139.22 34.97
  A 34.96 34.54 0.0 0 1 104.26 69.51
  A 34.96 34.54 0.0 0 1 69.30 34.97
  A 34.96 34.54 0.0 0 1 104.26 0.43
  A 34.96 34.54 0.0 0 1 139.22 34.97
  Z
  M 108.44 20.00
  Q 108.99 21.05 108.17 20.20
  Q 103.08 14.93 96.40 13.49
  C 88.68 11.83 82.91 17.13 84.31 25.04
  Q 85.40 31.15 88.52 36.76
  Q 88.83 37.32 88.62 37.92
  C 87.03 42.54 86.14 48.73 88.35 53.02
  Q 91.73 59.61 97.38 56.22
  C 101.51 53.75 101.29 46.45 100.86 42.03
  A 0.69 0.69 0.0 0 0 100.21 41.41
  Q 97.97 41.28 97.52 39.37
  Q 97.38 38.78 97.72 38.28
  Q 99.30 35.91 101.51 33.55
  C 103.85 31.08 107.52 32.19 107.69 35.76
  Q 107.98 41.86 107.85 48.52
  C 107.76 52.81 109.46 57.14 114.51 57.30
  C 123.64 57.60 121.70 43.47 120.28 38.34
  A 2.81 2.80 -36.7 0 1 120.61 36.12
  C 123.42 31.63 125.37 25.24 123.96 20.26
  C 121.33 10.93 112.64 11.56 105.53 15.08
  Q 104.91 15.39 105.39 15.89
  Q 107.26 17.80 108.44 20.00
  Z"
/>
<path fill="#ffffff" d="
  M 108.44 20.00
  Q 107.26 17.80 105.39 15.89
  Q 104.91 15.39 105.53 15.08
  C 112.64 11.56 121.33 10.93 123.96 20.26
  C 125.37 25.24 123.42 31.63 120.61 36.12
  A 2.81 2.80 -36.7 0 0 120.28 38.34
  C 121.70 43.47 123.64 57.60 114.51 57.30
  C 109.46 57.14 107.76 52.81 107.85 48.52
  Q 107.98 41.86 107.69 35.76
  C 107.52 32.19 103.85 31.08 101.51 33.55
  Q 99.30 35.91 97.72 38.28
  Q 97.38 38.78 97.52 39.37
  Q 97.97 41.28 100.21 41.41
  A 0.69 0.69 0.0 0 1 100.86 42.03
  C 101.29 46.45 101.51 53.75 97.38 56.22
  Q 91.73 59.61 88.35 53.02
  C 86.14 48.73 87.03 42.54 88.62 37.92
  Q 88.83 37.32 88.52 36.76
  Q 85.40 31.15 84.31 25.04
  C 82.91 17.13 88.68 11.83 96.40 13.49
  Q 103.08 14.93 108.17 20.20
  Q 108.99 21.05 108.44 20.00
  Z"
/>
<path fill="#0ebab0" d="
  M 143.86 112.00
  L 138.04 112.00
  Q 130.05 110.16 126.64 103.88
  C 122.52 96.30 125.17 87.59 132.12 82.93
  Q 135.03 80.98 138.50 80.58
  Q 148.85 79.40 154.91 87.71
  C 155.85 88.99 156.20 90.58 156.74 92.07
  Q 158.15 95.96 156.94 100.03
  Q 154.02 109.83 143.86 112.00
  Z
  M 154.2165 96.8965
  A 13.15 12.84 2.6 0 0 141.6625 83.4732
  A 13.15 12.84 2.6 0 0 127.9435 95.7035
  A 13.15 12.84 2.6 0 0 140.4975 109.1268
  A 13.15 12.84 2.6 0 0 154.2165 96.8965
  Z"
/>
<path fill="#58585a" d="
  M 0.21 81.31
  A 0.42 0.42 0.0 0 1 0.63 80.88
  L 10.33 80.85
  A 16.38 15.28 -0.2 0 1 26.76 96.07
  L 26.76 96.35
  A 16.38 15.28 -0.2 0 1 10.43 111.69
  L 0.73 111.72
  A 0.42 0.42 0.0 0 1 0.31 111.31
  L 0.21 81.31
  Z
  M 3.50 84.19
  L 3.50 108.35
  A 0.28 0.28 0.0 0 0 3.78 108.63
  L 10.64 108.63
  A 12.64 12.13 0.0 0 0 23.28 96.50
  L 23.28 96.04
  A 12.64 12.13 0.0 0 0 10.64 83.91
  L 3.78 83.91
  A 0.28 0.28 0.0 0 0 3.50 84.19
  Z"
/>
<path fill="#58585a" d="
  M 88.91 112.00
  L 86.74 112.00
  Q 80.25 111.22 80.22 104.50
  Q 80.18 92.80 80.17 81.31
  Q 80.17 80.79 80.69 80.79
  L 83.28 80.81
  Q 83.74 80.82 83.73 81.28
  L 83.67 88.20
  Q 83.66 88.75 84.20 88.75
  L 88.75 88.75
  Q 89.00 88.75 89.00 89.00
  L 88.99 91.52
  Q 88.99 91.78 88.73 91.78
  L 84.25 91.72
  Q 83.63 91.71 83.64 92.33
  Q 83.78 97.86 83.65 104.16
  C 83.59 107.08 85.01 109.57 88.30 109.36
  Q 88.83 109.32 88.93 109.84
  Q 89.14 110.90 88.91 112.00
  Z"
/>
<path fill="#58585a" d="
  M 121.06 111.31
  A 0.31 0.31 0.0 0 1 120.75 111.62
  L 118.01 111.62
  A 0.31 0.31 0.0 0 1 117.70 111.31
  L 117.70 81.11
  A 0.31 0.31 0.0 0 1 118.01 80.80
  L 120.75 80.80
  A 0.31 0.31 0.0 0 1 121.06 81.11
  L 121.06 111.31
  Z"
/>
<path fill="#58585a" d="
  M 43.13 112.00
  L 38.74 112.00
  Q 28.02 108.90 29.21 98.25
  Q 29.63 94.54 32.69 91.53
  Q 35.44 88.82 39.09 88.31
  Q 46.46 87.29 51.10 93.68
  Q 53.22 96.58 52.91 100.70
  Q 52.86 101.28 52.28 101.28
  L 32.77 101.29
  A 0.58 0.57 81.7 0 0 32.22 102.03
  Q 33.28 105.75 36.13 107.41
  Q 43.70 111.81 48.95 104.48
  Q 49.32 103.96 49.95 103.95
  L 51.91 103.92
  A 0.47 0.47 0.0 0 1 52.34 104.60
  Q 49.28 110.86 43.13 112.00
  Z
  M 32.57 98.33
  L 49.51 98.33
  A 0.03 0.03 0.0 0 0 49.54 98.30
  L 49.54 98.24
  A 8.34 6.75 0.0 0 0 41.20 91.49
  L 40.88 91.49
  A 8.34 6.75 0.0 0 0 32.54 98.24
  L 32.54 98.30
  A 0.03 0.03 0.0 0 0 32.57 98.33
  Z"
/>
<path fill="#0ebab0" d="
  M 208.00 98.86
  L 208.00 101.28
  L 188.31 101.28
  Q 187.74 101.28 187.73 101.85
  Q 187.67 103.92 188.96 105.43
  C 192.75 109.89 200.47 110.73 203.38 104.94
  Q 203.86 103.96 204.95 103.96
  L 206.56 103.95
  Q 207.71 103.94 207.19 104.97
  Q 204.25 110.85 198.11 112.00
  L 193.76 112.00
  Q 186.82 110.17 184.49 103.00
  Q 183.50 99.97 184.30 97.79
  C 184.98 95.94 185.85 93.49 187.22 92.11
  Q 191.42 87.90 196.12 88.10
  Q 206.12 88.53 208.00 98.86
  Z
  M 187.89 98.32
  L 204.47 98.40
  A 0.11 0.11 0.0 0 0 204.58 98.29
  L 204.58 98.24
  A 8.24 6.74 0.3 0 0 196.38 91.46
  L 196.06 91.46
  A 8.24 6.74 0.3 0 0 187.78 98.16
  L 187.78 98.21
  A 0.11 0.11 0.0 0 0 187.89 98.32
  Z"
/>
<path fill="#58585a" d="
  M 75.37 94.10
  Q 76.49 95.53 76.50 97.27
  Q 76.57 103.81 76.53 111.24
  Q 76.52 111.63 76.13 111.63
  L 73.53 111.59
  Q 73.07 111.58 73.09 111.12
  Q 73.28 104.76 73.16 98.50
  C 73.02 91.51 65.07 88.94 60.50 94.20
  Q 59.13 95.78 59.15 98.08
  Q 59.22 105.21 59.18 111.30
  A 0.40 0.40 0.0 0 1 58.76 111.70
  L 56.25 111.54
  Q 55.87 111.51 55.86 111.14
  Q 55.80 106.02 55.84 100.76
  Q 55.87 96.19 57.31 93.32
  C 60.62 86.77 69.73 86.93 74.25 91.90
  C 74.84 92.55 74.84 93.41 75.37 94.10
  Z"
/>
<path fill="#58585a" d="
  M 103.86 112.00
  L 99.72 112.00
  C 93.18 110.50 89.06 104.91 90.06 98.31
  C 90.84 93.20 95.20 88.62 100.62 88.29
  Q 108.81 87.79 112.66 94.96
  Q 113.92 97.33 113.82 100.19
  Q 113.62 105.84 113.85 110.91
  Q 113.88 111.53 113.25 111.56
  L 111.26 111.66
  A 0.85 0.85 0.0 0 1 110.38 110.75
  L 110.51 109.03
  Q 110.58 108.08 109.92 108.76
  Q 107.39 111.33 103.86 112.00
  Z
  M 101.7579 109.0498
  A 8.89 8.62 90.4 0 0 110.4398 100.2202
  A 8.89 8.62 90.4 0 0 101.8821 91.2702
  A 8.89 8.62 90.4 0 0 93.2002 100.0998
  A 8.89 8.62 90.4 0 0 101.7579 109.0498
  Z"
/>
<path fill="#0ebab0" d="
  M 177.37 96.00
  C 173.81 88.47 163.40 90.66 163.61 98.85
  Q 163.78 105.37 163.66 111.05
  Q 163.65 111.63 163.06 111.63
  L 160.99 111.63
  Q 160.46 111.62 160.46 111.10
  Q 160.49 104.23 160.49 97.44
  C 160.49 93.55 163.86 89.64 167.54 88.71
  Q 175.11 86.82 179.43 92.98
  Q 181.01 95.24 180.99 97.66
  Q 180.92 104.57 181.03 111.16
  Q 181.03 111.46 180.73 111.49
  L 178.29 111.72
  Q 178.04 111.74 178.03 111.49
  Q 177.94 105.26 178.04 99.00
  Q 178.07 97.46 177.37 96.00
  Z"
/>
</svg>
