<?xml version="1.0" encoding="UTF-8" standalone="no"?>
<svg xmlns="http://www.w3.org/2000/svg" version="1.2" baseProfile="tiny" viewBox="0.00 0.00 72.00 70.00">
<path stroke="#87ddd8" stroke-width="2.00" fill="none" stroke-linecap="butt" vector-effect="non-scaling-stroke" d="
  M 39.71 19.68
  C 34.72 14.62 24.30 9.78 18.39 16.18
  C 13.57 21.41 17.36 31.15 20.31 36.56
  Q 20.60 37.10 20.47 37.70
  Q 20.07 39.56 19.59 41.49
  Q 18.39 46.31 19.52 50.96
  C 20.48 54.94 23.97 59.07 28.54 56.73
  C 33.70 54.09 33.37 47.17 32.91 42.04
  Q 32.86 41.53 32.37 41.40
  L 31.02 41.04
  A 1.88 1.87 23.5 0 1 29.91 38.22
  Q 31.94 35.04 34.26 33.12
  C 36.19 31.53 39.25 32.54 39.48 35.19
  Q 39.97 40.96 39.73 47.12
  C 39.53 52.32 41.03 57.64 47.42 57.30
  C 55.90 56.85 53.36 42.90 52.34 37.93
  Q 52.23 37.40 52.45 36.91
  C 54.38 32.61 56.22 29.37 56.46 24.49
  C 56.73 19.22 53.92 13.36 48.16 12.79
  Q 42.75 12.25 37.51 15.08
  Q 36.81 15.46 37.37 16.04
  Q 38.92 17.65 39.98 19.48
  Q 40.65 20.63 39.71 19.68"
/>
<path fill="#0ebab0" d="
  M 71.17 34.96
  A 34.91 34.50 0.0 0 1 36.26 69.46
  A 34.91 34.50 0.0 0 1 1.35 34.96
  A 34.91 34.50 0.0 0 1 36.26 0.46
  A 34.91 34.50 0.0 0 1 71.17 34.96
  Z
  M 39.71 19.68
  C 34.72 14.62 24.30 9.78 18.39 16.18
  C 13.57 21.41 17.36 31.15 20.31 36.56
  Q 20.60 37.10 20.47 37.70
  Q 20.07 39.56 19.59 41.49
  Q 18.39 46.31 19.52 50.96
  C 20.48 54.94 23.97 59.07 28.54 56.73
  C 33.70 54.09 33.37 47.17 32.91 42.04
  Q 32.86 41.53 32.37 41.40
  L 31.02 41.04
  A 1.88 1.87 23.5 0 1 29.91 38.22
  Q 31.94 35.04 34.26 33.12
  C 36.19 31.53 39.25 32.54 39.48 35.19
  Q 39.97 40.96 39.73 47.12
  C 39.53 52.32 41.03 57.64 47.42 57.30
  C 55.90 56.85 53.36 42.90 52.34 37.93
  Q 52.23 37.40 52.45 36.91
  C 54.38 32.61 56.22 29.37 56.46 24.49
  C 56.73 19.22 53.92 13.36 48.16 12.79
  Q 42.75 12.25 37.51 15.08
  Q 36.81 15.46 37.37 16.04
  Q 38.92 17.65 39.98 19.48
  Q 40.65 20.63 39.71 19.68
  Z"
/>
<path fill="#ffffff" d="
  M 39.98 19.48
  Q 38.92 17.65 37.37 16.04
  Q 36.81 15.46 37.51 15.08
  Q 42.75 12.25 48.16 12.79
  C 53.92 13.36 56.73 19.22 56.46 24.49
  C 56.22 29.37 54.38 32.61 52.45 36.91
  Q 52.23 37.40 52.34 37.93
  C 53.36 42.90 55.90 56.85 47.42 57.30
  C 41.03 57.64 39.53 52.32 39.73 47.12
  Q 39.97 40.96 39.48 35.19
  C 39.25 32.54 36.19 31.53 34.26 33.12
  Q 31.94 35.04 29.91 38.22
  A 1.88 1.87 23.5 0 0 31.02 41.04
  L 32.37 41.40
  Q 32.86 41.53 32.91 42.04
  C 33.37 47.17 33.70 54.09 28.54 56.73
  C 23.97 59.07 20.48 54.94 19.52 50.96
  Q 18.39 46.31 19.59 41.49
  Q 20.07 39.56 20.47 37.70
  Q 20.60 37.10 20.31 36.56
  C 17.36 31.15 13.57 21.41 18.39 16.18
  C 24.30 9.78 34.72 14.62 39.71 19.68
  Q 40.65 20.63 39.98 19.48
  Z"
/>
</svg>
